<?xml version="1.0" encoding="UTF-8" standalone="no"?>
<svg
   xmlns:dc="http://purl.org/dc/elements/1.1/"
   xmlns:cc="http://creativecommons.org/ns#"
   xmlns:rdf="http://www.w3.org/1999/02/22-rdf-syntax-ns#"
   xmlns:svg="http://www.w3.org/2000/svg"
   xmlns="http://www.w3.org/2000/svg"
   viewBox="0 0 256 256"
   height="256"
   width="256"
   id="svg64"
   version="1.1">
  <metadata
     id="metadata70">
    <rdf:RDF>
      <cc:Work
         rdf:about="">
        <dc:format>image/svg+xml</dc:format>
        <dc:type
           rdf:resource="http://purl.org/dc/dcmitype/StillImage" />
        <dc:title></dc:title>
      </cc:Work>
    </rdf:RDF>
  </metadata>
  <defs
     id="defs68" />
  <path
     id="path76"
     d="m 42.219167,272.80455 c -45.2250844,33.29557 -22.612547,16.64779 0,0 z M 212.1761,265.74424 c -158.529713,38.00244 -79.26485,19.00123 0,0 z M 171.65865,197.9875 v -40.54054 l 2.36219,-0.19034 c 3.36604,-0.27123 5.99809,-1.52747 8.13286,-3.88171 3.36069,-3.70617 3.2676,-3.02389 3.40551,-24.95871 l 0.12107,-19.25297 h 1.50525 1.50524 l -0.10724,20.03207 -0.10723,20.03206 -1.42566,2.89498 c -2.10215,4.26863 -5.2644,6.85252 -9.81788,8.02225 l -1.98385,0.50965 -0.0963,38.93689 -0.0963,38.93689 h -1.69889 -1.69889 z M 70.374619,235.16661 c 0,-0.8637 0.12755,-1.57053 0.283445,-1.5707 0.155894,-1.8e-4 2.101045,-0.17334 4.322561,-0.3848 12.983918,-1.23598 21.389708,-7.29466 23.9192,-17.2404 0.458808,-1.804 0.575057,-4.84331 0.575057,-15.03535 v -12.77425 l -2.928919,-0.27481 c -1.610909,-0.15113 -4.368158,-0.69312 -6.12722,-1.2044 -12.061607,-3.50578 -19.404459,-13.40959 -21.523907,-29.03074 -0.466337,-3.43709 -1.402334,-23.56895 -1.764909,-37.96044 L 66.87426,109.5426 h 41.62132 41.62133 l -6.5e-4,2.75043 c -6.6e-4,3.79315 -0.66215,22.92651 -1.15673,33.4793 -0.47228,10.07728 -0.80717,13.17728 -1.90565,17.64065 -3.5664,14.49126 -12.21251,22.62851 -25.88554,24.36205 l -3.55293,0.45045 v 12.93175 c 0,14.21946 0.125,15.27986 2.31427,19.63335 1.63262,3.24653 5.46698,7.0244 8.88119,8.75034 4.55094,2.30056 8.48931,3.31849 14.9759,3.8707 l 2.92891,0.24934 v 1.53802 1.53801 l -4.25165,-0.21738 c -14.35875,-0.73422 -24.57951,-7.98647 -27.51984,-19.52701 -0.65976,-2.5895 -0.7301,-4.27997 -0.7301,-17.54732 v -14.68181 l 4.25166,-0.21347 c 16.23371,-0.81508 25.24649,-11.33897 26.71176,-31.19029 0.51152,-6.93013 1.52397,-32.14935 1.53442,-38.22142 l 0.003,-2.18137 H 108.49204 70.268649 l 0.24807,8.63064 c 0.593811,20.65964 1.253235,33.15785 1.976584,37.46269 1.912402,11.38122 6.877732,19.08554 14.698865,22.80713 3.762776,1.79046 6.566694,2.45 11.454829,2.6944 l 4.274243,0.21371 -0.13264,15.59503 c -0.12896,15.16118 -0.15697,15.6636 -1.00662,18.05839 -1.18328,3.33516 -1.927751,4.73178 -3.990642,7.48654 -4.560782,6.09036 -13.376721,10.13186 -23.165192,10.61967 l -4.251664,0.21187 z M 160.32089,124.71736 v -15.55413 h 1.5117 1.5117 v 15.55413 15.55411 h -1.5117 -1.5117 z m 13.47935,15.30121 c -0.13857,-0.13911 -0.25196,-7.13846 -0.25196,-15.55413 v -15.30121 h 1.70068 1.70065 v 15.55413 15.55411 h -1.44871 c -0.79678,0 -1.56209,-0.1138 -1.70066,-0.2529 z"
     style="fill:#000000;stroke-width:0.37864655" />
  <g
     transform="matrix(1.7618168,0,0,1.9024114,225.18834,208.91662)"
     id="g3926">
    <path
       style="fill:none"
       d="M 0,0 H 24 V 24 H 0 Z"
       id="path3912" />
    <path
       style="stroke-width:7.76734829"
       d="m -104.95519,19.61688 0,-81.156645 48.492577,-39.990365 47.4534527,39.990365 0,81.156645 L -1.6874851,20 V -41.127673 H 22 l -78.958284,-68.768637 -78.958286,68.768637 h 23.68749 V 20 Z"
       id="path3914" />
  </g>
</svg>
